<svg xmlns="http://www.w3.org/2000/svg" xmlns:xlink="http://www.w3.org/1999/xlink" viewBox="0 0 22.93 21.98">
           
   
            <path d="M 0 0 L 22.929688 0 L 22.929688 4 L 0 4 Z M 0 0 "/>
            <path d="M 0 9 L 22.929688 9 L 22.929688 13 L 0 13 Z M 0 9 "/>
            <path d="M 0 18 L 22.929688 18 L 22.929688 21.980469 L 0 21.980469 Z M 0 18 "/>
            <path style=" stroke:none;fill-rule:nonzero;fill:#8d77d8;fill-opacity:1;" d="M 0 3.960938 L 22.929688 3.960938 L 22.929688 -0.00390625 L 0 -0.00390625 Z M 0 3.960938 "/>
            <path style=" stroke:none;fill-rule:nonzero;fill:#8d77d8;fill-opacity:1;" d="M 0 12.972656 L 22.929688 12.972656 L 22.929688 9.007813 L 0 9.007813 Z M 0 12.972656 "/>
            <path style=" stroke:none;fill-rule:nonzero;fill:#8d77d8;fill-opacity:1;" d="M 0 21.980469 L 22.929688 21.980469 L 22.929688 18.015625 L 0 18.015625 Z M 0 21.980469 "/>
        
</svg>